<svg width="24" height="24" viewBox="0 0 24 24" fill="none" xmlns="http://www.w3.org/2000/svg">
<path fill-rule="evenodd" clip-rule="evenodd" d="M5.456 23.9882C4.92077 23.9691 4.23095 23.9273 3.91741 23.864C3.4388 23.7673 2.98682 23.6208 2.61095 23.4292C2.16933 23.2042 1.77352 22.917 1.43175 22.5758C1.0892 22.2339 0.800897 21.8377 0.574928 21.3954C0.383888 21.0216 0.237434 20.5723 0.140373 20.0964C0.0758161 19.7797 0.0331207 19.0848 0.0137661 18.5461C0.00591735 18.3259 0.00189027 18.041 0.00189027 17.9096L0 6.09228C0 5.9614 0.00398599 5.67638 0.0117936 5.45596C0.0308195 4.92077 0.072693 4.23095 0.136017 3.91741C0.232626 3.43884 0.379204 2.98682 0.570737 2.61095C0.795843 2.16928 1.08296 1.77356 1.42419 1.43175C1.76608 1.08924 2.1623 0.800938 2.60454 0.574928C2.97844 0.383929 3.42767 0.237434 3.90352 0.140373C4.22022 0.0758161 4.91522 0.0331207 5.45391 0.0138072C5.674 0.00591735 5.95898 0.00189027 6.09039 0.00189027L17.9077 0C18.0386 0 18.3236 0.0039449 18.544 0.0117936C19.0792 0.0308606 19.7691 0.072693 20.0825 0.136017C20.5612 0.232667 21.0132 0.379245 21.389 0.570737C21.8306 0.795843 22.2264 1.083 22.5682 1.42419C22.9107 1.76612 23.199 2.16226 23.425 2.60454C23.616 2.97844 23.7626 3.42763 23.8596 3.90352C23.9242 4.22022 23.9668 4.91527 23.9862 5.45391C23.9941 5.67404 23.9981 5.95898 23.9981 6.09039L24 17.9077C24 18.0386 23.996 18.3236 23.9882 18.544C23.9691 19.0792 23.9273 19.769 23.8639 20.0825C23.7673 20.5612 23.6208 21.0131 23.4292 21.389C23.2042 21.8307 22.917 22.2264 22.5758 22.5682C22.2339 22.9107 21.8377 23.1991 21.3954 23.425C21.0215 23.6161 20.5723 23.7626 20.0964 23.8596C19.7797 23.9241 19.0847 23.9668 18.5461 23.9862C18.3259 23.9941 18.041 23.9981 17.9096 23.9981L6.09228 24C5.96136 24 5.67634 23.996 5.456 23.9882Z" fill="#161722"/>
<mask id="mask0_2703_245056" style="mask-type:luminance" maskUnits="userSpaceOnUse" x="0" y="0" width="24" height="24">
<path fill-rule="evenodd" clip-rule="evenodd" d="M5.456 23.9882C4.92077 23.9691 4.23095 23.9273 3.91741 23.864C3.4388 23.7673 2.98682 23.6208 2.61095 23.4292C2.16933 23.2042 1.77352 22.917 1.43175 22.5758C1.0892 22.2339 0.800897 21.8377 0.574928 21.3954C0.383888 21.0216 0.237434 20.5723 0.140373 20.0964C0.0758161 19.7797 0.0331207 19.0848 0.0137661 18.5461C0.00591735 18.3259 0.00189027 18.041 0.00189027 17.9096L0 6.09228C0 5.9614 0.00398599 5.67638 0.0117936 5.45596C0.0308195 4.92077 0.072693 4.23095 0.136017 3.91741C0.232626 3.43884 0.379204 2.98682 0.570737 2.61095C0.795843 2.16928 1.08296 1.77356 1.42419 1.43175C1.76608 1.08924 2.1623 0.800938 2.60454 0.574928C2.97844 0.383929 3.42767 0.237434 3.90352 0.140373C4.22022 0.0758161 4.91522 0.0331207 5.45391 0.0138072C5.674 0.00591735 5.95898 0.00189027 6.09039 0.00189027L17.9077 0C18.0386 0 18.3236 0.0039449 18.544 0.0117936C19.0792 0.0308606 19.7691 0.072693 20.0825 0.136017C20.5612 0.232667 21.0132 0.379245 21.389 0.570737C21.8306 0.795843 22.2264 1.083 22.5682 1.42419C22.9107 1.76612 23.199 2.16226 23.425 2.60454C23.616 2.97844 23.7626 3.42763 23.8596 3.90352C23.9242 4.22022 23.9668 4.91527 23.9862 5.45391C23.9941 5.67404 23.9981 5.95898 23.9981 6.09039L24 17.9077C24 18.0386 23.996 18.3236 23.9882 18.544C23.9691 19.0792 23.9273 19.769 23.8639 20.0825C23.7673 20.5612 23.6208 21.0131 23.4292 21.389C23.2042 21.8307 22.917 22.2264 22.5758 22.5682C22.2339 22.9107 21.8377 23.1991 21.3954 23.425C21.0215 23.6161 20.5723 23.7626 20.0964 23.8596C19.7797 23.9241 19.0847 23.9668 18.5461 23.9862C18.3259 23.9941 18.041 23.9981 17.9096 23.9981L6.09228 24C5.96136 24 5.67634 23.996 5.456 23.9882Z" fill="white"/>
</mask>
<g mask="url(#mask0_2703_245056)">
<path d="M9.94236 10.0446V9.30859C9.68702 9.26795 9.42907 9.24591 9.17054 9.24263C7.95346 9.23973 6.7673 9.62578 5.78508 10.3445C4.80286 11.0632 4.07597 12.0769 3.71044 13.2378C3.34492 14.3987 3.35988 15.646 3.75315 16.7978C4.14642 17.9496 4.89742 18.9456 5.8966 19.6405C5.14528 18.8357 4.64291 17.8307 4.45011 16.7467C4.25731 15.6627 4.38232 14.5461 4.81005 13.5316C5.23779 12.5171 5.94997 11.648 6.86065 11.0293C7.77134 10.4105 8.84163 10.0686 9.94236 10.0446Z" fill="#65D2E9"/>
<path d="M10.0813 18.36C10.7535 18.3592 11.3995 18.0991 11.8848 17.634C12.3701 17.1688 12.6573 16.5344 12.6865 15.8628V3.41467H14.9613C14.9149 3.15463 14.8926 2.89085 14.8946 2.62671H11.7842V15.0622C11.7592 15.7369 11.4738 16.3758 10.9879 16.8446C10.502 17.3135 9.85343 17.5759 9.17823 17.5769C8.75903 17.5733 8.34666 17.4704 7.97488 17.2766C8.2158 17.6104 8.53218 17.8825 8.89823 18.0708C9.26428 18.259 9.66964 18.3581 10.0813 18.36Z" fill="#65D2E9"/>
<path d="M19.2091 7.63794V6.9461C18.3721 6.94609 17.5537 6.69908 16.8565 6.23602C17.4675 6.94687 18.2933 7.43946 19.2091 7.63934V7.63794Z" fill="#65D2E9"/>
<path d="M16.8565 6.23604C16.1698 5.45383 15.7912 4.4485 15.7914 3.40765H14.9613C15.0686 3.98299 15.2919 4.53047 15.6176 5.01673C15.9433 5.50299 16.3646 5.91785 16.8558 6.23604H16.8565Z" fill="#E6436D"/>
<path d="M9.17263 12.3551C8.59028 12.3584 8.02571 12.5561 7.56862 12.917C7.11152 13.2778 6.78811 13.781 6.64975 14.3467C6.51139 14.9124 6.56602 15.5081 6.80497 16.0392C7.04392 16.5703 7.45347 17.0063 7.96858 17.2779C7.68687 16.8888 7.5182 16.4294 7.48119 15.9505C7.44419 15.4715 7.5403 14.9916 7.7589 14.5639C7.9775 14.1361 8.31009 13.7771 8.71992 13.5265C9.12976 13.2759 9.60089 13.1434 10.0813 13.1438C10.343 13.1465 10.6029 13.187 10.8531 13.2638V10.0986C10.5976 10.0604 10.3396 10.0405 10.0813 10.0389H9.94094V12.4456C9.69055 12.3785 9.43176 12.3481 9.17263 12.3551Z" fill="#E6436D"/>
<path d="M19.2091 7.63788V10.0446C17.6593 10.0412 16.1499 9.55023 14.8946 8.64125V14.9653C14.8915 16.4808 14.2872 17.9332 13.2145 19.0037C12.1417 20.0742 10.6881 20.6754 9.17262 20.6754C8.00048 20.6777 6.85653 20.316 5.89868 19.6404C6.67973 20.4806 7.69569 21.0661 8.81421 21.3206C9.93274 21.5751 11.102 21.4868 12.1697 21.0673C13.2373 20.6478 14.1539 19.9165 14.8 18.9687C15.4461 18.0208 15.7918 16.9004 15.7921 15.7533V9.44886C17.0516 10.3519 18.5631 10.8361 20.1129 10.8332V7.73401C19.8091 7.73334 19.5062 7.70112 19.2091 7.63788Z" fill="#E6436D"/>
<path d="M14.8947 14.9668V8.64272C16.1549 9.54637 17.6676 10.0305 19.2183 10.0264V7.61971C18.3027 7.4265 17.4748 6.94087 16.8593 6.23604C16.3681 5.91785 15.9468 5.50299 15.6211 5.01673C15.2954 4.53047 15.0721 3.98299 14.9648 3.40765H12.6865V15.8635C12.6644 16.4056 12.4739 16.9274 12.1416 17.3563C11.8092 17.7852 11.3516 18.1 10.8321 18.2569C10.3127 18.4137 9.75734 18.4049 9.24315 18.2316C8.72897 18.0583 8.28152 17.7292 7.96299 17.29C7.44772 17.0185 7.03796 16.5827 6.79884 16.0516C6.55973 15.5206 6.50497 14.9249 6.64327 14.3592C6.78158 13.7934 7.10501 13.2902 7.56216 12.9294C8.01932 12.5686 8.58395 12.3709 9.16633 12.3678C9.42808 12.37 9.68811 12.4104 9.93815 12.4878V10.0804C8.83139 10.0992 7.754 10.4397 6.83735 11.0602C5.9207 11.6807 5.20439 12.5545 4.77574 13.5751C4.34709 14.5956 4.22462 15.7189 4.42327 16.8078C4.62192 17.8968 5.1331 18.9044 5.8945 19.7079C6.8615 20.3603 8.00636 20.6982 9.17264 20.6755C10.6879 20.6755 12.1413 20.0744 13.214 19.0042C14.2867 17.934 14.8911 16.482 14.8947 14.9668Z" fill="white"/>
</g>
</svg>
