<svg width="24" height="24" viewBox="0 0 24 24" fill="none" xmlns="http://www.w3.org/2000/svg">
<path fill-rule="evenodd" clip-rule="evenodd" d="M17.5833 1.33331C20.6666 1.33331 22.6666 3.33331 22.6666 6.41665V17.5833C22.6666 20.6666 20.6666 22.6666 17.5833 22.6666H6.41665C3.33331 22.6666 1.33331 20.6666 1.33331 17.5833V6.41665C1.33331 3.33331 3.33331 1.33331 6.41665 1.33331H17.5833Z" fill="url(#paint0_linear_2703_244987)"/>
<path fill-rule="evenodd" clip-rule="evenodd" d="M12.216 4.17773C7.99406 4.17773 4.57153 7.60027 4.57153 11.8222C4.57153 13.2415 4.95834 14.5705 5.63231 15.7095L4.91932 18.2929L6.31733 17.905L5.93134 19.3035L8.6051 18.5618C9.68047 19.1391 10.91 19.4666 12.216 19.4666C16.4379 19.4666 19.8604 16.0441 19.8604 11.8222C19.8604 7.60027 16.4379 4.17773 12.216 4.17773ZM5.21267 19.5029L4.72089 19.0118L4.53333 19.6914L5.21267 19.5029ZM6.31733 17.905L8.27242 17.3626L8.75371 17.2291L9.19376 17.4653C10.1149 17.9599 11.1451 18.2222 12.216 18.2222C15.7506 18.2222 18.616 15.3568 18.616 11.8222C18.616 8.28756 15.7506 5.42218 12.216 5.42218C8.68135 5.42218 5.81597 8.28756 5.81597 11.8222C5.81597 12.9846 6.12517 14.0987 6.7033 15.0758L6.97259 15.5309L6.83191 16.0406L6.31733 17.905Z" fill="white"/>
<path fill-rule="evenodd" clip-rule="evenodd" d="M10.3063 8.76979L10.8149 9.98277C10.8149 9.98277 11.0236 10.4654 10.5671 10.8436C10.1107 11.2219 10.4235 11.6011 10.4235 11.6011C10.4235 11.6011 10.9902 12.6298 12.6188 13.6116C12.6188 13.6116 13.0533 13.9129 13.4344 13.5092C13.4344 13.5092 13.6951 13.2468 13.9151 12.97C13.9151 12.97 14.1888 12.5898 14.6008 12.8505C14.6008 12.8505 15.2086 13.1908 15.8023 13.4985C15.8023 13.4985 16.3458 13.7195 16.1067 14.2971C16.1067 14.2971 15.4205 15.8234 13.7104 15.4625C13.7104 15.4625 12.4788 15.336 11.3923 14.5464C11.2255 14.4251 11.1753 14.3947 10.7922 14.084C10.763 14.0603 10.5814 13.8924 10.5519 13.8659C10.3501 13.6844 10.1312 13.4614 10.0189 13.3404C9.14542 12.3998 8.76581 11.6011 8.76581 11.6011C8.76581 11.6011 8.34601 10.7544 8.28585 10.2479C8.28585 10.2479 8.08024 9.14339 9.01505 8.50899C9.01505 8.50899 9.91496 7.81779 10.3063 8.76979Z" fill="white"/>
<defs>
<linearGradient id="paint0_linear_2703_244987" x1="1.33331" y1="1.33331" x2="1.33331" y2="22.6666" gradientUnits="userSpaceOnUse">
<stop stop-color="#64FF80"/>
<stop offset="1" stop-color="#04B622"/>
</linearGradient>
</defs>
</svg>
